<svg width="880" height="1280" xmlns="http://www.w3.org/2000/svg" >
<rect x="0" y="0" width="880" height="1280" stroke="#FFFFFF" fill="#FFFFFF" />
<rect x="40" y="136" width="800" height="36" stroke="#FFFFE0" fill="#FFFFE0" />
<line x1="40" y1="154" x2="840" y2="154" stroke-width="1" stroke="#f4ebc3" stroke-linecap="round" stroke-dasharray="15,10" />
<rect x="40" y="172" width="800" height="36" stroke="#FFFFF0" fill="#FFFFF0" />
<line x1="40" y1="190" x2="840" y2="190" stroke-width="1" stroke="#f8f0dd" stroke-linecap="round" stroke-dasharray="15,10" />
<rect x="40" y="208" width="800" height="36" stroke="#FFFFE0" fill="#FFFFE0" />
<line x1="40" y1="226" x2="840" y2="226" stroke-width="1" stroke="#f4ebc3" stroke-linecap="round" stroke-dasharray="15,10" />
<rect x="40" y="244" width="800" height="36" stroke="#FFFFF0" fill="#FFFFF0" />
<line x1="40" y1="262" x2="840" y2="262" stroke-width="1" stroke="#f8f0dd" stroke-linecap="round" stroke-dasharray="15,10" />
<rect x="40" y="280" width="800" height="36" stroke="#FFFFE0" fill="#FFFFE0" />
<line x1="40" y1="298" x2="840" y2="298" stroke-width="1" stroke="#f4ebc3" stroke-linecap="round" stroke-dasharray="15,10" />
<circle cx="62" cy="154" r="14" stroke-width="1" stroke="#FFFFA0" fill="#FFFFD0" />
<text x="58" y="156" font-family="sans-serif" font-size="9px" fill="#A0A0A0" >L0</text>
<circle cx="62" cy="190" r="14" stroke-width="1" stroke="#FFFFA0" fill="#FFFFD0" />
<text x="58" y="192" font-family="sans-serif" font-size="9px" fill="#A0A0A0" >L1</text>
<circle cx="62" cy="226" r="14" stroke-width="1" stroke="#FFFFA0" fill="#FFFFD0" />
<text x="58" y="228" font-family="sans-serif" font-size="9px" fill="#A0A0A0" >L2</text>
<circle cx="62" cy="262" r="14" stroke-width="1" stroke="#FFFFA0" fill="#FFFFD0" />
<text x="58" y="264" font-family="sans-serif" font-size="9px" fill="#A0A0A0" >L3</text>
<circle cx="62" cy="298" r="14" stroke-width="1" stroke="#FFFFA0" fill="#FFFFD0" />
<text x="58" y="300" font-family="sans-serif" font-size="9px" fill="#A0A0A0" >L4</text>
<rect x="56" y="60" width="368" height="48" rx="8" ry="8" stroke-width="1" stroke="#F0F0F0" fill="#F0F0F0" />
<text x="70" y="88" font-family="sans-serif" font-size="16px" fill="#C0C0C0" >0394 : 032110</text>
<text x="476" y="77" font-family="sans-serif" font-size="16px" fill="#A0A0A0" >Фигура #1</text>
<text x="476" y="101" font-family="sans-serif" font-size="16px" fill="#A0A0A0" >Сортировка входных данных</text>
<line x1="381" y1="154" x2="362" y2="190" stroke-width="2" stroke="#90C090" />
<line x1="381" y1="154" x2="498" y2="190" stroke-width="2" stroke="#90C090" />
<line x1="498" y1="190" x2="459" y2="226" stroke-width="2" stroke="#90C090" />
<line x1="498" y1="190" x2="517" y2="226" stroke-width="2" stroke="#90C090" />
<line x1="459" y1="226" x2="420" y2="262" stroke-width="2" stroke="#90C090" />
<line x1="459" y1="226" x2="478" y2="262" stroke-width="2" stroke="#90C090" />
<line x1="420" y1="262" x2="401" y2="298" stroke-width="2" stroke="#90C090" />
<line x1="420" y1="262" x2="439" y2="298" stroke-width="2" stroke="#90C090" />
<line x1="381" y1="154" x2="381" y2="380" stroke-width="1" stroke="#D0E0D0" stroke-linecap="round" stroke-dasharray="1,8" />
<line x1="355" y1="380" x2="524" y2="380" stroke-width="2" stroke="#E8E8E8" />
<circle cx="381" cy="380" r="1" stroke-width="1" stroke="#D0D0D0" fill="none" />
<rect x="366" y="341" width="30" height="15" rx="4" ry="4" stroke-width="1" stroke="#E0E0E0" fill="white" />
<text x="374" y="352" font-family="sans-serif" font-size="10px" fill="#C0C0C0" >1:2</text>
<line x1="498" y1="190" x2="498" y2="384" stroke-width="1" stroke="#D0E0D0" stroke-linecap="round" stroke-dasharray="1,8" />
<line x1="394" y1="384" x2="524" y2="384" stroke-width="2" stroke="#E8E8E8" />
<circle cx="498" cy="384" r="1" stroke-width="1" stroke="#D0D0D0" fill="none" />
<rect x="483" y="341" width="30" height="15" rx="4" ry="4" stroke-width="1" stroke="#E0E0E0" fill="white" />
<text x="491" y="352" font-family="sans-serif" font-size="10px" fill="#C0C0C0" >3:1</text>
<line x1="459" y1="226" x2="459" y2="388" stroke-width="1" stroke="#D0E0D0" stroke-linecap="round" stroke-dasharray="1,8" />
<line x1="394" y1="388" x2="485" y2="388" stroke-width="2" stroke="#E8E8E8" />
<circle cx="459" cy="388" r="1" stroke-width="1" stroke="#D0D0D0" fill="none" />
<rect x="444" y="341" width="30" height="15" rx="4" ry="4" stroke-width="1" stroke="#E0E0E0" fill="white" />
<text x="452" y="352" font-family="sans-serif" font-size="10px" fill="#C0C0C0" >2:1</text>
<line x1="420" y1="262" x2="420" y2="392" stroke-width="1" stroke="#D0E0D0" stroke-linecap="round" stroke-dasharray="1,8" />
<line x1="394" y1="392" x2="446" y2="392" stroke-width="2" stroke="#E8E8E8" />
<circle cx="420" cy="392" r="1" stroke-width="1" stroke="#D0D0D0" fill="none" />
<rect x="405" y="341" width="30" height="15" rx="4" ry="4" stroke-width="1" stroke="#E0E0E0" fill="white" />
<text x="413" y="352" font-family="sans-serif" font-size="10px" fill="#C0C0C0" >1:1</text>
<circle cx="381" cy="154" r="16" stroke-width="1" stroke="#fbab00e2" fill="#ffee8e" />
<circle cx="381" cy="154" r="13" stroke-width="1" stroke="#fbab00e2" fill="#FFFFA0" />
<line x1="368" y1="154" x2="394" y2="154" stroke-width="1" stroke="#fb9b00b7" />
<text x="375" y="160" font-family="sans-serif" font-size="5px" fill="#f5a700" >S64:4</text>
<text x="379" y="151" font-family="sans-serif" font-size="9px" fill="#303030" >8</text>
<rect x="353" y="182" width="26" height="26" rx="5" ry="5" stroke-width="1" stroke="#ececf0" fill="#e6e6f3" />
<rect x="349" y="177" width="26" height="26" rx="5" ry="5" stroke-width="1" stroke="#C0C0FF" fill="#E0E0FF" />
<line x1="349" y1="190" x2="375" y2="190" stroke-width="1" stroke="#C0C0FF" />
<text x="356" y="196" font-family="sans-serif" font-size="5px" fill="#5a72c6" >S25:0</text>
<text x="360" y="187" font-family="sans-serif" font-size="9px" fill="#303030" >3</text>
<circle cx="498" cy="190" r="16" stroke-width="1" stroke="#00AF00" fill="#BBFFBB" />
<circle cx="498" cy="190" r="13" stroke-width="1" stroke="#00AF00" fill="#E0FFE0" />
<line x1="485" y1="190" x2="511" y2="190" stroke-width="1" stroke="#90C090" />
<text x="492" y="196" font-family="sans-serif" font-size="5px" fill="gray" >S39:3</text>
<text x="496" y="187" font-family="sans-serif" font-size="9px" fill="#303030" >7</text>
<circle cx="459" cy="226" r="16" stroke-width="1" stroke="#00AF00" fill="#BBFFBB" />
<circle cx="459" cy="226" r="13" stroke-width="1" stroke="#00AF00" fill="#E0FFE0" />
<line x1="446" y1="226" x2="472" y2="226" stroke-width="1" stroke="#90C090" />
<text x="453" y="232" font-family="sans-serif" font-size="5px" fill="gray" >S15:2</text>
<text x="457" y="223" font-family="sans-serif" font-size="9px" fill="#303030" >6</text>
<circle cx="420" cy="262" r="16" stroke-width="1" stroke="#00AF00" fill="#BBFFBB" />
<circle cx="420" cy="262" r="13" stroke-width="1" stroke="#00AF00" fill="#E0FFE0" />
<line x1="407" y1="262" x2="433" y2="262" stroke-width="1" stroke="#90C090" />
<text x="415" y="268" font-family="sans-serif" font-size="5px" fill="gray" >S6:1</text>
<text x="418" y="259" font-family="sans-serif" font-size="9px" fill="#303030" >5</text>
<rect x="392" y="290" width="26" height="26" rx="5" ry="5" stroke-width="1" stroke="#ececf0" fill="#e6e6f3" />
<rect x="388" y="285" width="26" height="26" rx="5" ry="5" stroke-width="1" stroke="#C0C0FF" fill="#E0E0FF" />
<line x1="388" y1="298" x2="414" y2="298" stroke-width="1" stroke="#C0C0FF" />
<text x="396" y="304" font-family="sans-serif" font-size="5px" fill="#5a72c6" >S2:0</text>
<text x="399" y="295" font-family="sans-serif" font-size="9px" fill="#303030" >1</text>
<rect x="430" y="290" width="26" height="26" rx="5" ry="5" stroke-width="1" stroke="#ececf0" fill="#e6e6f3" />
<rect x="426" y="285" width="26" height="26" rx="5" ry="5" stroke-width="1" stroke="#C0C0FF" fill="#E0E0FF" />
<line x1="426" y1="298" x2="452" y2="298" stroke-width="1" stroke="#C0C0FF" />
<text x="434" y="304" font-family="sans-serif" font-size="5px" fill="#5a72c6" >S4:0</text>
<text x="437" y="295" font-family="sans-serif" font-size="9px" fill="#303030" >0</text>
<rect x="469" y="254" width="26" height="26" rx="5" ry="5" stroke-width="1" stroke="#ececf0" fill="#e6e6f3" />
<rect x="465" y="249" width="26" height="26" rx="5" ry="5" stroke-width="1" stroke="#C0C0FF" fill="#E0E0FF" />
<line x1="465" y1="262" x2="491" y2="262" stroke-width="1" stroke="#C0C0FF" />
<text x="473" y="268" font-family="sans-serif" font-size="5px" fill="#5a72c6" >S9:0</text>
<text x="476" y="259" font-family="sans-serif" font-size="9px" fill="#303030" >2</text>
<rect x="508" y="218" width="26" height="26" rx="5" ry="5" stroke-width="1" stroke="#ececf0" fill="#e6e6f3" />
<rect x="504" y="213" width="26" height="26" rx="5" ry="5" stroke-width="1" stroke="#C0C0FF" fill="#E0E0FF" />
<line x1="504" y1="226" x2="530" y2="226" stroke-width="1" stroke="#C0C0FF" />
<text x="511" y="232" font-family="sans-serif" font-size="5px" fill="#5a72c6" >S24:0</text>
<text x="515" y="223" font-family="sans-serif" font-size="9px" fill="#303030" >4</text>
<rect x="54" y="416" width="372" height="14" stroke-width="1" stroke="#F4F4F4" fill="#F4F4F4" />
<rect x="54" y="430" width="372" height="14" stroke-width="1" stroke="#F8F8F8" fill="#F8F8F8" />
<rect x="54" y="444" width="372" height="14" stroke-width="1" stroke="#F4F4F4" fill="#F4F4F4" />
<rect x="54" y="458" width="372" height="14" stroke-width="1" stroke="#F8F8F8" fill="#F8F8F8" />
<rect x="54" y="472" width="372" height="14" stroke-width="1" stroke="#F4F4F4" fill="#F4F4F4" />
<rect x="54" y="486" width="372" height="14" stroke-width="1" stroke="#F8F8F8" fill="#F8F8F8" />
<rect x="54" y="500" width="372" height="14" stroke-width="1" stroke="#F4F4F4" fill="#F4F4F4" />
<rect x="54" y="514" width="372" height="14" stroke-width="1" stroke="#F8F8F8" fill="#F8F8F8" />
<text x="72" y="426" font-family="sans-serif" font-size="9px" fill="#303030" >#0</text>
<text x="122" y="426" font-family="sans-serif" font-size="10px" fill="#303030" >1001</text>
<text x="92" y="426" font-family="sans-serif" font-size="7px" fill="#A0A0A0" >%12.50</text>
<text x="72" y="440" font-family="sans-serif" font-size="9px" fill="#303030" >#1</text>
<text x="122" y="440" font-family="sans-serif" font-size="10px" fill="#303030" >1000</text>
<text x="92" y="440" font-family="sans-serif" font-size="7px" fill="#A0A0A0" >%25.00</text>
<text x="72" y="454" font-family="sans-serif" font-size="9px" fill="#303030" >#2</text>
<text x="122" y="454" font-family="sans-serif" font-size="10px" fill="#303030" >101</text>
<text x="92" y="454" font-family="sans-serif" font-size="7px" fill="#A0A0A0" >%4.17</text>
<text x="72" y="468" font-family="sans-serif" font-size="9px" fill="#303030" >#3</text>
<text x="122" y="468" font-family="sans-serif" font-size="10px" fill="#303030" >0</text>
<text x="92" y="468" font-family="sans-serif" font-size="7px" fill="#A0A0A0" >%0.50</text>
<text x="72" y="482" font-family="sans-serif" font-size="9px" fill="#303030" >#4</text>
<text x="122" y="482" font-family="sans-serif" font-size="10px" fill="#303030" >11</text>
<text x="92" y="482" font-family="sans-serif" font-size="7px" fill="#A0A0A0" >%1.04</text>
<line x1="40" y1="552" x2="840" y2="552" stroke-width="2" stroke="#C0C0C0" stroke-linecap="round" stroke-dasharray="5,5" />
<rect x="40" y="656" width="800" height="36" stroke="#FFFFE0" fill="#FFFFE0" />
<line x1="40" y1="674" x2="840" y2="674" stroke-width="1" stroke="#f4ebc3" stroke-linecap="round" stroke-dasharray="15,10" />
<rect x="40" y="692" width="800" height="36" stroke="#FFFFF0" fill="#FFFFF0" />
<line x1="40" y1="710" x2="840" y2="710" stroke-width="1" stroke="#f8f0dd" stroke-linecap="round" stroke-dasharray="15,10" />
<rect x="40" y="728" width="800" height="36" stroke="#FFFFE0" fill="#FFFFE0" />
<line x1="40" y1="746" x2="840" y2="746" stroke-width="1" stroke="#f4ebc3" stroke-linecap="round" stroke-dasharray="15,10" />
<rect x="40" y="764" width="800" height="36" stroke="#FFFFF0" fill="#FFFFF0" />
<line x1="40" y1="782" x2="840" y2="782" stroke-width="1" stroke="#f8f0dd" stroke-linecap="round" stroke-dasharray="15,10" />
<rect x="40" y="800" width="800" height="36" stroke="#FFFFE0" fill="#FFFFE0" />
<line x1="40" y1="818" x2="840" y2="818" stroke-width="1" stroke="#f4ebc3" stroke-linecap="round" stroke-dasharray="15,10" />
<circle cx="62" cy="674" r="14" stroke-width="1" stroke="#FFFFA0" fill="#FFFFD0" />
<text x="58" y="676" font-family="sans-serif" font-size="9px" fill="#A0A0A0" >L0</text>
<circle cx="62" cy="710" r="14" stroke-width="1" stroke="#FFFFA0" fill="#FFFFD0" />
<text x="58" y="712" font-family="sans-serif" font-size="9px" fill="#A0A0A0" >L1</text>
<circle cx="62" cy="746" r="14" stroke-width="1" stroke="#FFFFA0" fill="#FFFFD0" />
<text x="58" y="748" font-family="sans-serif" font-size="9px" fill="#A0A0A0" >L2</text>
<circle cx="62" cy="782" r="14" stroke-width="1" stroke="#FFFFA0" fill="#FFFFD0" />
<text x="58" y="784" font-family="sans-serif" font-size="9px" fill="#A0A0A0" >L3</text>
<circle cx="62" cy="818" r="14" stroke-width="1" stroke="#FFFFA0" fill="#FFFFD0" />
<text x="58" y="820" font-family="sans-serif" font-size="9px" fill="#A0A0A0" >L4</text>
<rect x="56" y="580" width="368" height="48" rx="8" ry="8" stroke-width="1" stroke="#F0F0F0" fill="#F0F0F0" />
<text x="70" y="608" font-family="sans-serif" font-size="16px" fill="#C0C0C0" >0394 : 032110</text>
<text x="476" y="597" font-family="sans-serif" font-size="16px" fill="#A0A0A0" >Фигура #2</text>
<text x="476" y="621" font-family="sans-serif" font-size="16px" fill="#A0A0A0" >Разворот и трансформация</text>
<line x1="498" y1="674" x2="459" y2="710" stroke-width="2" stroke="#90C090" />
<line x1="498" y1="674" x2="517" y2="710" stroke-width="2" stroke="#90C090" />
<line x1="459" y1="710" x2="420" y2="746" stroke-width="2" stroke="#90C090" />
<line x1="459" y1="710" x2="478" y2="746" stroke-width="2" stroke="#90C090" />
<line x1="420" y1="746" x2="381" y2="782" stroke-width="2" stroke="#90C090" />
<line x1="420" y1="746" x2="439" y2="782" stroke-width="2" stroke="#90C090" />
<line x1="381" y1="782" x2="362" y2="818" stroke-width="2" stroke="#90C090" />
<line x1="381" y1="782" x2="400" y2="818" stroke-width="2" stroke="#90C090" />
<line x1="498" y1="674" x2="498" y2="900" stroke-width="1" stroke="#D0E0D0" stroke-linecap="round" stroke-dasharray="1,8" />
<line x1="355" y1="900" x2="524" y2="900" stroke-width="2" stroke="#E8E8E8" />
<circle cx="498" cy="900" r="1" stroke-width="1" stroke="#D0D0D0" fill="none" />
<rect x="483" y="861" width="30" height="15" rx="4" ry="4" stroke-width="1" stroke="#E0E0E0" fill="white" />
<text x="491" y="872" font-family="sans-serif" font-size="10px" fill="#C0C0C0" >4:1</text>
<line x1="459" y1="710" x2="459" y2="904" stroke-width="1" stroke="#D0E0D0" stroke-linecap="round" stroke-dasharray="1,8" />
<line x1="355" y1="904" x2="485" y2="904" stroke-width="2" stroke="#E8E8E8" />
<circle cx="459" cy="904" r="1" stroke-width="1" stroke="#D0D0D0" fill="none" />
<rect x="444" y="861" width="30" height="15" rx="4" ry="4" stroke-width="1" stroke="#E0E0E0" fill="white" />
<text x="452" y="872" font-family="sans-serif" font-size="10px" fill="#C0C0C0" >3:1</text>
<line x1="420" y1="746" x2="420" y2="908" stroke-width="1" stroke="#D0E0D0" stroke-linecap="round" stroke-dasharray="1,8" />
<line x1="355" y1="908" x2="446" y2="908" stroke-width="2" stroke="#E8E8E8" />
<circle cx="420" cy="908" r="1" stroke-width="1" stroke="#D0D0D0" fill="none" />
<rect x="405" y="861" width="30" height="15" rx="4" ry="4" stroke-width="1" stroke="#E0E0E0" fill="white" />
<text x="413" y="872" font-family="sans-serif" font-size="10px" fill="#C0C0C0" >2:1</text>
<line x1="381" y1="782" x2="381" y2="912" stroke-width="1" stroke="#D0E0D0" stroke-linecap="round" stroke-dasharray="1,8" />
<line x1="355" y1="912" x2="407" y2="912" stroke-width="2" stroke="#E8E8E8" />
<circle cx="381" cy="912" r="1" stroke-width="1" stroke="#D0D0D0" fill="none" />
<rect x="366" y="861" width="30" height="15" rx="4" ry="4" stroke-width="1" stroke="#E0E0E0" fill="white" />
<text x="374" y="872" font-family="sans-serif" font-size="10px" fill="#C0C0C0" >1:1</text>
<circle cx="498" cy="674" r="16" stroke-width="1" stroke="#fbab00e2" fill="#ffee8e" />
<path d="M 484 674 A 14 14 0 0 0 512 674"  fill="none"  stroke="#fbab00e2"  stroke-width="4" />
<circle cx="498" cy="674" r="13" stroke-width="1" stroke="#fbab00e2" fill="#FFFFA0" />
<line x1="485" y1="674" x2="511" y2="674" stroke-width="1" stroke="#fb9b00b7" />
<text x="492" y="680" font-family="sans-serif" font-size="5px" fill="#f5a700" >S64:4</text>
<text x="496" y="671" font-family="sans-serif" font-size="9px" fill="#303030" >8</text>
<circle cx="459" cy="710" r="16" stroke-width="1" stroke="#00AF00" fill="#BBFFBB" />
<circle cx="459" cy="710" r="13" stroke-width="1" stroke="#00AF00" fill="#E0FFE0" />
<line x1="446" y1="710" x2="472" y2="710" stroke-width="1" stroke="#90C090" />
<text x="453" y="716" font-family="sans-serif" font-size="5px" fill="gray" >S39:3</text>
<text x="457" y="707" font-family="sans-serif" font-size="9px" fill="#303030" >7</text>
<circle cx="420" cy="746" r="16" stroke-width="1" stroke="#00AF00" fill="#BBFFBB" />
<circle cx="420" cy="746" r="13" stroke-width="1" stroke="#00AF00" fill="#E0FFE0" />
<line x1="407" y1="746" x2="433" y2="746" stroke-width="1" stroke="#90C090" />
<text x="414" y="752" font-family="sans-serif" font-size="5px" fill="gray" >S15:2</text>
<text x="418" y="743" font-family="sans-serif" font-size="9px" fill="#303030" >6</text>
<circle cx="381" cy="782" r="16" stroke-width="1" stroke="#00AF00" fill="#BBFFBB" />
<circle cx="381" cy="782" r="13" stroke-width="1" stroke="#00AF00" fill="#E0FFE0" />
<line x1="368" y1="782" x2="394" y2="782" stroke-width="1" stroke="#90C090" />
<text x="376" y="788" font-family="sans-serif" font-size="5px" fill="gray" >S6:1</text>
<text x="379" y="779" font-family="sans-serif" font-size="9px" fill="#303030" >5</text>
<rect x="353" y="810" width="26" height="26" rx="5" ry="5" stroke-width="1" stroke="#ececf0" fill="#e6e6f3" />
<rect x="349" y="805" width="26" height="26" rx="5" ry="5" stroke-width="1" stroke="#C0C0FF" fill="#E0E0FF" />
<line x1="349" y1="818" x2="375" y2="818" stroke-width="1" stroke="#C0C0FF" />
<text x="357" y="824" font-family="sans-serif" font-size="5px" fill="#5a72c6" >S2:0</text>
<text x="360" y="815" font-family="sans-serif" font-size="9px" fill="#303030" >1</text>
<rect x="391" y="810" width="26" height="26" rx="5" ry="5" stroke-width="1" stroke="#ececf0" fill="#e6e6f3" />
<rect x="387" y="805" width="26" height="26" rx="5" ry="5" stroke-width="1" stroke="#C0C0FF" fill="#E0E0FF" />
<line x1="387" y1="818" x2="413" y2="818" stroke-width="1" stroke="#C0C0FF" />
<text x="395" y="824" font-family="sans-serif" font-size="5px" fill="#5a72c6" >S4:0</text>
<text x="398" y="815" font-family="sans-serif" font-size="9px" fill="#303030" >0</text>
<rect x="430" y="774" width="26" height="26" rx="5" ry="5" stroke-width="1" stroke="#ececf0" fill="#e6e6f3" />
<rect x="426" y="769" width="26" height="26" rx="5" ry="5" stroke-width="1" stroke="#C0C0FF" fill="#E0E0FF" />
<line x1="426" y1="782" x2="452" y2="782" stroke-width="1" stroke="#C0C0FF" />
<text x="434" y="788" font-family="sans-serif" font-size="5px" fill="#5a72c6" >S9:0</text>
<text x="437" y="779" font-family="sans-serif" font-size="9px" fill="#303030" >2</text>
<rect x="469" y="738" width="26" height="26" rx="5" ry="5" stroke-width="1" stroke="#ececf0" fill="#e6e6f3" />
<rect x="465" y="733" width="26" height="26" rx="5" ry="5" stroke-width="1" stroke="#C0C0FF" fill="#E0E0FF" />
<line x1="465" y1="746" x2="491" y2="746" stroke-width="1" stroke="#C0C0FF" />
<text x="472" y="752" font-family="sans-serif" font-size="5px" fill="#5a72c6" >S24:0</text>
<text x="476" y="743" font-family="sans-serif" font-size="9px" fill="#303030" >4</text>
<rect x="508" y="702" width="26" height="26" rx="5" ry="5" stroke-width="1" stroke="#ececf0" fill="#e6e6f3" />
<rect x="504" y="697" width="26" height="26" rx="5" ry="5" stroke-width="1" stroke="#C0C0FF" fill="#E0E0FF" />
<line x1="504" y1="710" x2="530" y2="710" stroke-width="1" stroke="#C0C0FF" />
<text x="511" y="716" font-family="sans-serif" font-size="5px" fill="#5a72c6" >S25:0</text>
<text x="515" y="707" font-family="sans-serif" font-size="9px" fill="#303030" >3</text>
<rect x="54" y="936" width="372" height="14" stroke-width="1" stroke="#F4F4F4" fill="#F4F4F4" />
<rect x="54" y="950" width="372" height="14" stroke-width="1" stroke="#F8F8F8" fill="#F8F8F8" />
<rect x="54" y="964" width="372" height="14" stroke-width="1" stroke="#F4F4F4" fill="#F4F4F4" />
<rect x="54" y="978" width="372" height="14" stroke-width="1" stroke="#F8F8F8" fill="#F8F8F8" />
<rect x="54" y="992" width="372" height="14" stroke-width="1" stroke="#F4F4F4" fill="#F4F4F4" />
<rect x="54" y="1006" width="372" height="14" stroke-width="1" stroke="#F8F8F8" fill="#F8F8F8" />
<rect x="54" y="1020" width="372" height="14" stroke-width="1" stroke="#F4F4F4" fill="#F4F4F4" />
<rect x="54" y="1034" width="372" height="14" stroke-width="1" stroke="#F8F8F8" fill="#F8F8F8" />
<text x="72" y="946" font-family="sans-serif" font-size="9px" fill="#303030" >#0</text>
<text x="122" y="946" font-family="sans-serif" font-size="10px" fill="#303030" >0001</text>
<text x="92" y="946" font-family="sans-serif" font-size="7px" fill="#A0A0A0" >%12.50</text>
<text x="72" y="960" font-family="sans-serif" font-size="9px" fill="#303030" >#1</text>
<text x="122" y="960" font-family="sans-serif" font-size="10px" fill="#303030" >0000</text>
<text x="92" y="960" font-family="sans-serif" font-size="7px" fill="#A0A0A0" >%25.00</text>
<text x="72" y="974" font-family="sans-serif" font-size="9px" fill="#303030" >#2</text>
<text x="122" y="974" font-family="sans-serif" font-size="10px" fill="#303030" >001</text>
<text x="92" y="974" font-family="sans-serif" font-size="7px" fill="#A0A0A0" >%4.17</text>
<text x="72" y="988" font-family="sans-serif" font-size="9px" fill="#303030" >#3</text>
<text x="122" y="988" font-family="sans-serif" font-size="10px" fill="#303030" >1</text>
<text x="92" y="988" font-family="sans-serif" font-size="7px" fill="#A0A0A0" >%0.50</text>
<text x="72" y="1002" font-family="sans-serif" font-size="9px" fill="#303030" >#4</text>
<text x="122" y="1002" font-family="sans-serif" font-size="10px" fill="#303030" >01</text>
<text x="92" y="1002" font-family="sans-serif" font-size="7px" fill="#A0A0A0" >%1.04</text>
<line x1="40" y1="1072" x2="840" y2="1072" stroke-width="2" stroke="#C0C0C0" stroke-linecap="round" stroke-dasharray="5,5" />
<text x="670" y="33" font-family="sans-serif" font-size="10px" fill="#A0A0A0" >2026-04-03 22:24:55</text>
<text x="50" y="1256" font-family="sans-serif" font-size="8px" fill="#A0A0A0" >Call parameters :  -v 4.2.9.25.24 -blkn 4 </text>
<rect x="70" y="1106" width="170" height="108" stroke-width="1" stroke="#E0E0E0" fill="none" />
<line x1="70" y1="1127" x2="240" y2="1127" stroke-width="1" stroke="#B0B0B0" stroke-linecap="round" stroke-dasharray="3,3" />
<rect x="70" y="1201" width="34" height="13" stroke-width="1" stroke="#9090F0" fill="#D0D0FF" />
<rect x="104" y="1208" width="34" height="6" stroke-width="1" stroke="#9090F0" fill="#D0D0FF" />
<rect x="138" y="1183" width="34" height="31" stroke-width="1" stroke="#9090F0" fill="#D0D0FF" />
<rect x="172" y="1128" width="34" height="86" stroke-width="1" stroke="#9090F0" fill="#D0D0FF" />
<rect x="206" y="1132" width="34" height="82" stroke-width="1" stroke="#9090F0" fill="#D0D0FF" />
<text x="74" y="1123" font-family="sans-serif" font-size="10px" fill="gray" >min: 2 / max: 25</text>
<text x="70" y="1224" font-family="sans-serif" font-size="7px" fill="gray" >0</text>
<text x="229" y="1224" font-family="sans-serif" font-size="7px" fill="gray" >5</text>
<rect x="260" y="1106" width="170" height="108" stroke-width="1" stroke="#E0E0E0" fill="none" />
<line x1="260" y1="1127" x2="430" y2="1127" stroke-width="1" stroke="#B0B0B0" stroke-linecap="round" stroke-dasharray="3,3" />
<rect x="261" y="1128" width="41" height="86" stroke-width="1" stroke="#F4F4F4" fill="#F4F4F4" />
<rect x="260" y="1208" width="17" height="6" stroke-width="1" stroke="#B0B0B0" fill="#C0C0C0" />
<rect x="277" y="1201" width="17" height="13" stroke-width="1" stroke="#B0B0B0" fill="#C0C0C0" />
<rect x="294" y="1183" width="17" height="31" stroke-width="1" stroke="#B0B0B0" fill="#C0C0C0" />
<rect x="311" y="1132" width="17" height="82" stroke-width="1" stroke="#B0B0B0" fill="#C0C0C0" />
<rect x="328" y="1128" width="17" height="86" stroke-width="1" stroke="#B0B0B0" fill="#C0C0C0" />
<rect x="345" y="1128" width="17" height="86" stroke-width="1" stroke="#9090F0" fill="#D0D0FF" />
<rect x="362" y="1132" width="17" height="82" stroke-width="1" stroke="#9090F0" fill="#D0D0FF" />
<rect x="379" y="1183" width="17" height="31" stroke-width="1" stroke="#9090F0" fill="#D0D0FF" />
<rect x="396" y="1201" width="17" height="13" stroke-width="1" stroke="#9090F0" fill="#D0D0FF" />
<rect x="413" y="1208" width="17" height="6" stroke-width="1" stroke="#9090F0" fill="#D0D0FF" />
<text x="264" y="1123" font-family="sans-serif" font-size="10px" fill="gray" >min: 2 / max: 25</text>
<text x="335" y="1224" font-family="sans-serif" font-size="7px" fill="gray" >0</text>
<text x="419" y="1224" font-family="sans-serif" font-size="7px" fill="gray" >5</text>
<path d="M 345 1128 A 85 86 0 0 0 260 1214"  fill="none"  stroke="#E0E0E0"  stroke-width="1"  stroke-dasharray="2,1" />
<line x1="345" y1="1128" x2="260" y2="1214" stroke-width="1" stroke="#E0E0E0" stroke-linecap="round" stroke-dasharray="1,3" />
<path d="M 345 1128 A 85 86 0 0 1 260 1214"  fill="none"  stroke="#E0E0E0"  stroke-width="1"  stroke-dasharray="2,1" />
<path d="M 302 1171 A 42 43 0 0 1 260 1214"  fill="none"  stroke="#E0E0E0"  stroke-width="1"  stroke-dasharray="2,1" />
<path d="M 302 1171 A 42 43 0 0 1 345 1128"  fill="none"  stroke="#E0E0E0"  stroke-width="1"  stroke-dasharray="2,1" />
<path d="M 302 1171 A 42 43 0 0 0 260 1214"  fill="none"  stroke="#E0E0E0"  stroke-width="1"  stroke-dasharray="2,1" />
<path d="M 302 1171 A 42 43 0 0 0 345 1128"  fill="none"  stroke="#E0E0E0"  stroke-width="1"  stroke-dasharray="2,1" />
<line x1="260" y1="1171" x2="345" y2="1171" stroke-width="1" stroke="#E0E0E0" stroke-linecap="round" stroke-dasharray="1,3" />
<rect x="40" y="40" width="800" height="1200" rx="12" ry="12" stroke-width="2" stroke="#E0E0E0" fill="none" />
<text x="50" y="30" font-family="sans-serif" font-size="15px" fill="#A0A0A0" >Визуализатор деревьев Хаффмана</text>
<text x="670" y="20" font-family="sans-serif" font-size="10px" fill="#A0A0A0" >V1.00 V01G04A81 (C) 2025, 2026</text>
</svg>
